<svg width="73" height="98" viewBox="0 0 73 98" fill="none" xmlns="http://www.w3.org/2000/svg">
<g id="Info">
<path id="Ellipse 47" d="M41.7818 5.85804C45.7155 6.47881 49.4741 7.78693 52.8429 9.70771C56.2117 11.6285 59.1248 14.1243 61.4159 17.0527C63.707 19.981 65.3312 23.2846 66.1957 26.7747C67.0602 30.2649 67.1482 33.8732 66.4546 37.3938C65.761 40.9143 64.2994 44.2782 62.1532 47.2932C60.007 50.3082 57.2183 52.9154 53.9463 54.9658C50.6743 57.0163 46.9831 58.4699 43.0834 59.2436C39.1837 60.0174 35.1519 60.0961 31.2182 59.4753C27.2845 58.8546 23.526 57.5465 20.1572 55.6257C16.7883 53.7049 13.8752 51.2091 11.5841 48.2807C9.29306 45.3523 7.66889 42.0488 6.80435 38.5587C5.93981 35.0685 5.85183 31.4602 6.54545 27.9396C7.23907 24.419 8.70069 21.0552 10.8469 18.0402C12.993 15.0252 15.7817 12.418 19.0537 10.3676C22.3257 8.31709 26.017 6.86349 29.9167 6.08975C33.8163 5.316 37.8481 5.23727 41.7818 5.85804L41.7818 5.85804Z" stroke="white" stroke-width="2"/>
<path id="Vector 133" d="M36.5 32.6667L36.5 16.3334" stroke="white" stroke-width="2" stroke-linecap="square"/>
<path id="Vector 134" d="M36.5 46.2778L36.5 49" stroke="white" stroke-width="2" stroke-linecap="square"/>
</g>
</svg>
