<svg width="67" height="71" viewBox="0 0 67 71" fill="none" xmlns="http://www.w3.org/2000/svg">
<g id="Sign_out_squre">
<path id="Vector 9" d="M5.58333 35.5L4.78523 34.8975L4.33037 35.5L4.78523 36.1025L5.58333 35.5ZM30.7083 36.5C31.2606 36.5 31.7083 36.0523 31.7083 35.5C31.7083 34.9477 31.2606 34.5 30.7083 34.5V36.5ZM15.9519 20.1058L4.78523 34.8975L6.38144 36.1025L17.5481 21.3108L15.9519 20.1058ZM4.78523 36.1025L15.9519 50.8942L17.5481 49.6891L6.38144 34.8975L4.78523 36.1025ZM5.58333 36.5H30.7083V34.5H5.58333V36.5Z" fill="#FCFCFC"/>
<path id="Rectangle 21" d="M27.9167 24.057V15.1888C27.9167 13.5851 27.9167 12.7833 28.3844 12.2257C28.8521 11.6681 29.6417 11.5287 31.221 11.2498L54.3731 7.1607C57.6395 6.58379 59.2727 6.29534 60.3447 7.19456C61.4167 8.09379 61.4167 9.75228 61.4167 13.0692V57.9308C61.4167 61.2478 61.4167 62.9063 60.3447 63.8055C59.2727 64.7047 57.6395 64.4162 54.3731 63.8393L31.221 59.7503C29.6417 59.4714 28.8521 59.3319 28.3844 58.7743C27.9167 58.2167 27.9167 57.4149 27.9167 55.8112V47.5285" stroke="#FCFCFC" stroke-width="2"/>
</g>
</svg>
